<?xml version="1.0" encoding="UTF-8"?>
<svg id="Layer_2" data-name="Layer 2" xmlns="http://www.w3.org/2000/svg" viewBox="0 0 36.37 36.36">
  <defs>
    <style>
      .cls-1 {
        fill: #b1c76b;
      }
    </style>
  </defs>
  <g id="Layer_1-2" data-name="Layer 1">
    <g>
      <path class="cls-1" d="m36.37,20.81c-.21,1.13-.98,1.94-1.63,2.82-1.45,1.93-2.86,3.89-4.37,5.77-1.46,1.82-3.44,2.69-5.77,2.7-4.02.02-8.05,0-12.07,0h-.44c-.03.89-.27,1.67-.88,2.28-.3.29-.65.55-1.02.75-.68.38-1.39.71-2.09,1.05-.73.36-1.29.19-1.65-.53C4.35,31.46,2.25,27.28.17,23.1c-.34-.68-.15-1.25.53-1.6.72-.36,1.44-.72,2.15-1.08.93-.47,1.87-.52,2.84-.11.1.04.3,0,.39-.08.74-.62,1.45-1.29,2.21-1.9,2.58-2.09,6.55-2.08,9.15-.02,1.56,1.23,1.01.99,2.84,1,1.4.01,2.79,0,4.19,0,1.51,0,2.57.67,3.17,2.06.01.03.03.06.05.09,0,0,.02.01.06.03.4-.43.81-.87,1.22-1.31.7-.74,1.37-1.51,2.11-2.21.89-.83,1.97-1.02,3.1-.63,1.13.38,1.86,1.18,2.12,2.37.01.05.05.1.07.15v.92Zm-18.19,9.16c2.07,0,4.14,0,6.21,0,1.94,0,3.5-.76,4.66-2.33.67-.91,1.36-1.82,2.04-2.73.95-1.27,1.91-2.53,2.85-3.8.44-.59.33-1.29-.23-1.63-.48-.29-.97-.19-1.42.3-1.49,1.59-2.97,3.18-4.45,4.78-.69.74-1.51,1.15-2.53,1.15-2.01,0-4.02,0-6.04,0-.65,0-1.14-.46-1.14-1.06,0-.6.48-1.06,1.13-1.06.9,0,1.8,0,2.7,0,.88,0,1.75.01,2.63,0,.8-.02,1.31-.72,1.05-1.43-.16-.44-.57-.7-1.13-.7-1.8,0-3.6-.01-5.4,0-.78,0-1.46-.25-2.07-.71-.26-.2-.52-.41-.78-.61-2.06-1.66-4.81-1.65-6.85.04-.62.51-1.2,1.07-1.82,1.58-.21.18-.24.31-.11.56,1.24,2.45,2.47,4.92,3.69,7.38.11.22.23.3.48.3,2.18-.01,4.35,0,6.53,0Zm-10.24,3.88c.42-.21.8-.4,1.18-.59.81-.41.99-.93.59-1.73-.65-1.31-1.31-2.62-1.96-3.93-.79-1.57-1.57-3.15-2.36-4.72-.3-.59-.79-.85-1.33-.64-.52.2-1.02.48-1.55.74,1.82,3.63,3.62,7.23,5.43,10.87Z"/>
      <path class="cls-1" d="m19.89,0c.39.13.8.21,1.17.38,2.61,1.2,3.34,4.51,1.5,6.72-.04.04-.07.09-.12.16.09.07.17.13.25.19,2,1.32,2.99,3.19,3.03,5.57,0,.33,0,.66,0,.99-.02.58-.46,1.03-1.04,1.04-3.59,0-7.17,0-10.76,0-.55,0-1.02-.4-1.04-.92-.04-1.15-.04-2.29.38-3.39.52-1.36,1.37-2.44,2.59-3.23.11-.07.22-.14.34-.23-.49-.56-.88-1.17-1.06-1.9-.6-2.4,1-4.88,3.44-5.31.07-.01.13-.05.19-.07.38,0,.76,0,1.14,0Zm3.66,12.91c.14-2.26-1.98-4.38-4.3-4.31-2.74.09-4.34,2.49-4.23,4.31h8.53Zm-2.1-8.59c0-1.16-1-2.19-2.13-2.19-1.15,0-2.21,1.07-2.2,2.21.01,1.13,1.04,2.12,2.2,2.11,1.15,0,2.13-.99,2.12-2.14Z"/>
    </g>
  </g>
</svg>