<?xml version="1.0" encoding="UTF-8"?>
<svg id="Layer_2" data-name="Layer 2" xmlns="http://www.w3.org/2000/svg" viewBox="0 0 41.03 25.65">
  <defs>
    <style>
      .cls-1 {
        fill: #b1c76b;
      }
    </style>
  </defs>
  <g id="Layer_1-2" data-name="Layer 1">
    <path class="cls-1" d="m41.03,18.19c-.22.49-.62.64-1.14.64-1.5-.02-2.99,0-4.49,0-.85,0-1.03-.14-1.28-.95-.04-.11-.08-.23-.12-.34,0-.02-.04-.04-.08-.07-.37.25-.75.48-1.12.75-.08.06-.13.23-.12.34.16,1.59-1.14,2.96-2.71,3.08-.11,0-.25.09-.31.18-.72,1.23-1.82,1.72-3.19,1.65-.24-.01-.35.04-.47.24-.57.96-1.87,1.87-3.39,1.45-.08-.02-.19-.03-.26.01-1.18.74-2.39.54-3.62.12-.95-.33-1.75-.91-2.52-1.53-2.28-1.79-4.56-3.57-6.8-5.41-.83-.68-1.53-1.52-2.29-2.29-.04-.04-.08-.06-.12-.1-.03.03-.05.05-.05.07q-.44,1.08-1.63,1.08c-1.4,0-2.8,0-4.21,0C.27,17.1,0,16.82,0,15.98,0,11.02,0,6.07,0,1.11,0,.25.28-.05,1.13,0c2.45.18,4.89.38,7.25,1.12.42.13.83.31,1.21.52.62.34.74.65.63,1.36-.02.12-.03.23-.05.38.16,0,.29.02.42.02,2.02,0,4.03,0,6.05,0,.22,0,.47-.09.65-.22,1.29-.94,2.69-1.57,4.32-1.32.77.12,1.54.34,2.26.61,1.62.62,3.21,1.31,4.81,1.97.12.05.25.09.43.16-.15-.82.35-1.09.96-1.31,1.98-.73,4.02-1.16,6.11-1.36,1.23-.12,2.48-.15,3.71-.24.52-.04.91.14,1.13.63v15.87ZM9.89,5.14c-.03.15-.05.25-.07.36-.71,2.73-1.43,5.46-2.13,8.2-.04.15-.03.39.06.49.94.98,1.83,2.04,2.88,2.9,2.53,2.07,5.12,4.07,7.72,6.05.48.37,1.13.52,1.71.73.22.08.49.03.83.05-.34-.35-.61-.61-.87-.88-.87-.9-1.75-1.8-2.62-2.71-.41-.43-.42-.91-.05-1.28.37-.36.89-.32,1.31.11.08.09.16.18.25.26,1.3,1.29,2.6,2.57,3.9,3.86.31.3.67.3,1.04.14.4-.17.67-.46.8-.78-.45-.49-.87-.94-1.29-1.39-.85-.89-1.71-1.76-2.55-2.66-.52-.55-.28-1.35.43-1.49.39-.08.65.14.91.4,1.28,1.29,2.54,2.59,3.84,3.86.56.54,1.37.5,1.94-.04.24-.22.3-.4.02-.68-1.51-1.49-3-3.01-4.48-4.53-.16-.16-.3-.39-.35-.61-.08-.37.09-.68.43-.87.35-.2.71-.15,1.02.16.67.67,1.32,1.36,1.99,2.03.93.94,1.87,1.87,2.82,2.79.34.33.63.35,1.05.11.56-.32.77-.92.39-1.47-.48-.68-1-1.37-1.62-1.91-2.59-2.25-5.23-4.45-7.85-6.65-.08-.07-.27-.08-.39-.04-.42.14-.81.35-1.23.45-.31.08-.51.23-.71.46-1.23,1.4-2.74,1.94-4.56,1.41-1.17-.34-1.74-1.13-1.68-2.35.05-1.19.62-2.19,1.27-3.15.31-.46.67-.88,1.03-1.34h-5.16Zm22.03,11.59c.45-.3.89-.58,1.31-.89.09-.07.16-.27.12-.38-1-2.79-2.02-5.58-3.05-8.37-.05-.13-.18-.26-.31-.32-2.31-.94-4.62-1.86-6.93-2.8-1.5-.61-2.95-.66-4.34.31-1.19.83-2.26,1.8-3.14,2.95-.53.69-.97,1.44-1.12,2.32-.08.44.03.64.44.76.91.27,1.75.13,2.45-.54.26-.25.46-.55.71-.81.15-.16.33-.32.53-.39.76-.28,1.54-.5,2.3-.78.47-.17.84-.11,1.2.24.62.58,1.26,1.15,1.92,1.7,2.67,2.27,5.56,4.29,7.9,6.99Zm7.38-13.3c-2.78.09-5.48.43-8.01,1.26,1.51,4.14,3,8.25,4.5,12.36h3.51V3.43ZM5.36,15.38c1.24-4.08,2.49-8.15,3.14-12.36-.9-.57-5.3-1.2-6.75-1.2v13.56h3.61Z"/>
  </g>
</svg>