<?xml version="1.0" encoding="UTF-8"?>
<svg id="Layer_2" data-name="Layer 2" xmlns="http://www.w3.org/2000/svg" viewBox="0 0 16.25 16.24">
  <defs>
    <style>
      .cls-1 {
        fill: #b1c76b;
      }
    </style>
  </defs>
  <g id="Layer_1-2" data-name="Layer 1">
    <path class="cls-1" d="m14.6,16.24H1.65s-.05-.02-.07-.03c-.59-.11-1.04-.42-1.33-.95-.11-.21-.17-.45-.25-.67C0,10.28,0,5.96,0,1.65c0-.02.02-.05.03-.07C.19.66.96,0,1.88,0,6.04,0,10.21,0,14.37,0c1.03,0,1.88.85,1.88,1.88,0,4.16,0,8.32,0,12.48,0,.63-.28,1.13-.77,1.51-.26.2-.57.3-.88.37Zm-3.86-1.27c.06,0,.11,0,.15,0,1.12,0,2.24,0,3.36,0,.48,0,.73-.26.73-.74,0-4.08,0-8.15,0-12.23,0-.49-.25-.74-.75-.74-4.07,0-8.14,0-12.21,0-.5,0-.75.25-.75.75,0,4.07,0,8.13,0,12.2,0,.51.25.76.76.76,2.18,0,4.37,0,6.55,0,.06,0,.11,0,.17,0v-5.18h-1.88v-1.97h1.89c0-.13,0-.24,0-.35.01-.48,0-.96.04-1.44.12-1.21,1.22-2.32,2.44-2.45.57-.06,1.14-.03,1.71-.04,0,0,.02.01.02.01v1.95c-.42,0-.83,0-1.23,0-.56,0-.95.32-.99.86-.04.48,0,.96,0,1.45h2.28c-.11.67-.22,1.31-.33,1.97h-1.96v5.17Z"/>
  </g>
</svg>