<?xml version="1.0" encoding="UTF-8"?>
<svg id="Layer_2" data-name="Layer 2" xmlns="http://www.w3.org/2000/svg" viewBox="0 0 97.41 92.59">
  <defs>
    <style>
      .cls-1 {
        fill: #14423c;
      }

      .cls-2 {
        fill: #b1c76b;
      }
    </style>
  </defs>
  <g id="Layer_1-2" data-name="Layer 1">
    <g>
      <path class="cls-2" d="m52.53,75.95c0,.29,0,.59-.01.88v.07c0,.07,0,.15-.01.22,0,.36,0,.72-.05,1.07-.12,1.33-.42,2.6-.88,3.8-1.29,3.37-3.83,6.11-7.04,7.67-1.87.91-3.97,1.43-6.19,1.43-2.62,0-5.08-.71-7.18-1.95-1.99-1.17-3.67-2.81-4.88-4.78-.44-.7-.82-1.45-1.12-2.22-.36-.91-.64-1.87-.8-2.86-.01-.01-.01-.03,0-.05-.05-.44-.1-.89-.16-1.33-1.16-9.68-3.96-18.84-8.1-27.24C11.98,42.28,6.51,34.68,0,28.15c8.58,3.76,16.2,9.3,22.4,16.17,2.89,3.2,5.46,6.68,7.68,10.41,1.63,2.73,3.06,5.59,4.28,8.56,1.6,3.87,2.85,7.94,3.67,12.14-.02-4.28-.28-8.51-.76-12.66-.87-7.64-2.49-15.06-4.81-22.16-.73-2.24-1.52-4.45-2.38-6.62-1.92-4.87-4.17-9.58-6.72-14.1-.01-.03-.03-.05-.04-.07C19.31,12.69,14.57,6.06,9.2,0c6.15,3.65,11.81,8.02,16.89,13,8.69,8.53,15.62,18.84,20.21,30.34,1.38,3.46,2.55,7.04,3.47,10.7,1.8,7,2.76,14.35,2.76,21.91Z"/>
      <path class="cls-1" d="m92.57,52.88c-3.24-3.09-8.43-5.44-15.52-6.88,5.69-2.39,9.73-5.24,12.12-8.53,2.39-3.29,3.59-7.23,3.59-11.82,0-2.39-.55-4.79-1.55-7.23-1.05-2.39-2.84-4.64-5.44-6.63-2.59-2.05-6.19-3.69-10.83-4.94-4.59-1.3-10.48-1.95-17.61-1.95-2.44,0-4.94.05-7.33.15-2.44.1-5.39.2-8.83.3-2.05.1-4.49.15-7.38.15-1.9.05-3.94.05-6.14.05,9.83,9.63,17.71,21.3,22.9,34.32,1.55,3.89,2.84,7.93,3.89,12.12.8-.05,1.5-.1,2.14-.1,6.59,0,11.27,1.4,14.12,4.19,2.84,2.79,4.24,7.03,4.24,12.62,0,8.08-3.79,12.87-11.37,14.37-.1.05-.2.05-.25.05-1.7.35-3.59.5-5.64.5l-7.43,7.68c-.45.3-.2,1.05.35,1.05,3.34.2,6.34.25,9.08.25,4.74,0,8.93-.25,12.62-.8.05.05.1.05.1,0,2.25-.35,4.29-.8,6.14-1.3,4.94-1.4,8.78-3.29,11.52-5.69,2.79-2.34,4.69-5.04,5.74-8.08,1.1-2.99,1.6-6.09,1.6-9.28,0-6.59-1.6-11.42-4.84-14.57Zm-36.37-13.57c-1.1-2.74-2.34-5.49-3.69-8.08V14.42c.7-.2,1.5-.3,2.44-.4.95-.05,1.8-.1,2.64-.1h.6c4.94.1,8.58,1.4,10.93,3.94,2.44,2.64,3.64,6.19,3.64,10.63s-1.25,7.98-3.74,10.58c-1.65,1.7-3.99,2.84-7.08,3.44h-.05c-1.3.25-2.74.45-4.34.45-.45-1.25-.9-2.44-1.35-3.64Z"/>
    </g>
  </g>
</svg>