<?xml version="1.0" encoding="UTF-8"?>
<svg id="Layer_2" data-name="Layer 2" xmlns="http://www.w3.org/2000/svg" viewBox="0 0 16.7 16.71">
  <defs>
    <style>
      .cls-1 {
        fill: #b1c76b;
      }
    </style>
  </defs>
  <g id="Layer_1-2" data-name="Layer 1">
    <g>
      <path class="cls-1" d="m0,12.5c0-2.76,0-5.52,0-8.28.01-.06.02-.12.04-.17.11-.41.16-.85.34-1.23C1.21,1.01,2.64.04,4.64.02c2.48-.03,4.96-.01,7.44,0,.31,0,.62.03.92.09,2.17.44,3.7,2.31,3.71,4.52,0,2.49,0,4.99,0,7.48,0,.3-.02.6-.09.89-.43,1.86-1.57,3.06-3.42,3.58-.23.06-.47.09-.7.14H4.21c-.17-.03-.33-.05-.5-.09-1.86-.44-3.06-1.58-3.58-3.42-.06-.23-.09-.47-.14-.7Zm1.5-4.14h0c0,1.21,0,2.42,0,3.64,0,.37.04.74.16,1.09.4,1.21,1.57,2.15,3.05,2.14,2.44-.02,4.87,0,7.31,0,.37,0,.72-.04,1.07-.16,1.21-.4,2.15-1.57,2.14-3.05-.02-2.44,0-4.87,0-7.31,0-.37-.04-.72-.16-1.07-.4-1.22-1.57-2.15-3.05-2.14-2.44.02-4.87,0-7.31,0-.42,0-.82.06-1.21.21-1.13.42-1.97,1.55-1.99,2.76-.02,1.3,0,2.6,0,3.9Z"/>
      <path class="cls-1" d="m8.36,12.66c-2.37,0-4.31-1.92-4.31-4.29,0-2.37,1.93-4.32,4.31-4.32,2.37,0,4.3,1.93,4.3,4.3,0,2.37-1.93,4.3-4.3,4.31Zm-.01-1.49c1.56,0,2.82-1.25,2.82-2.81,0-1.55-1.24-2.8-2.8-2.82-1.56-.01-2.82,1.24-2.83,2.8,0,1.56,1.24,2.82,2.81,2.82Z"/>
      <path class="cls-1" d="m12.84,4.97c-.6,0-1.09-.49-1.09-1.08,0-.59.5-1.09,1.09-1.09.59,0,1.08.49,1.09,1.08,0,.59-.49,1.09-1.09,1.09Z"/>
    </g>
  </g>
</svg>