<?xml version="1.0" encoding="UTF-8"?>
<svg id="Layer_2" data-name="Layer 2" xmlns="http://www.w3.org/2000/svg" viewBox="0 0 41.15 41.15">
  <defs>
    <style>
      .cls-1 {
        fill: none;
        stroke: #b2c86b;
        stroke-width: 2px;
      }

      .cls-2 {
        fill: #b1c76b;
      }
    </style>
  </defs>
  <g id="Layer_1-2" data-name="Layer 1">
    <g>
      <circle class="cls-1" cx="20.57" cy="20.57" r="19.57"/>
      <path class="cls-2" d="m21.93,22.52c.67.94.66,1.87.11,2.86-1.25,2.24-2.46,4.5-3.69,6.75-.31.56-.64.64-1.16.26-3.26-2.31-6.05-5.09-8.37-8.34-.04-.06-.08-.11-.12-.17-.28-.41-.2-.78.24-1.03,1.34-.73,2.68-1.46,4.02-2.19.97-.53,1.94-1.04,2.89-1.58.96-.54,1.87-.52,2.86.19.04-.07.08-.18.15-.26,2.91-2.91,5.82-5.82,8.73-8.73,1.11-1.11,2.8-.96,3.65.31.62.92.5,2.1-.31,2.93-1.04,1.06-2.1,2.1-3.15,3.15-1.91,1.9-3.81,3.8-5.72,5.7-.04.04-.08.09-.14.14Zm-10.49,2.86c.3-.24.57-.46.84-.68.27-.22.54-.45.82-.66.31-.24.69-.2.91.08.22.29.18.65-.12.91-.12.1-.25.19-.37.29-.42.33-.85.67-1.27,1-.03.04-.05.08-.08.12.87.86,1.74,1.71,2.63,2.58.12-.14.16-.19.21-.25.39-.49.77-.99,1.17-1.48.2-.25.48-.32.75-.2.27.11.44.39.37.68-.03.15-.13.3-.23.43-.4.52-.82,1.02-1.24,1.55.56.44,1.11.87,1.67,1.31.78-1.4,1.55-2.76,2.32-4.13-.03-.04-.06-.08-.09-.11-1.75-1.75-3.51-3.51-5.26-5.26-.13-.13-.21-.08-.33-.02-1.25.69-2.51,1.37-3.77,2.05-.07.04-.13.08-.22.13.44.56.86,1.1,1.3,1.66Zm9.62-3.83s.11-.1.17-.16c2.86-2.84,5.72-5.69,8.58-8.53.12-.12.23-.26.33-.4.46-.64.11-1.49-.67-1.62-.41-.07-.72.1-1,.38-2.91,2.91-5.81,5.82-8.72,8.72-.05.05-.1.11-.14.15.49.49.97.97,1.46,1.46Zm-5.55-.83c1.65,1.65,3.28,3.28,4.92,4.92.2-.37.42-.76.64-1.16.24-.43.18-.89-.17-1.25-.17-.18-.35-.35-.52-.52-.81-.8-1.61-1.6-2.42-2.4-.33-.33-.74-.46-1.17-.27-.45.2-.88.46-1.28.68Z"/>
    </g>
  </g>
</svg>