<?xml version="1.0" encoding="UTF-8"?>
<svg id="Layer_2" data-name="Layer 2" xmlns="http://www.w3.org/2000/svg" viewBox="0 0 41.15 41.15">
  <defs>
    <style>
      .cls-1 {
        fill: none;
        stroke: #b2c86b;
        stroke-width: 2px;
      }

      .cls-2 {
        fill: #b1c76b;
      }
    </style>
  </defs>
  <g id="Layer_1-2" data-name="Layer 1">
    <g>
      <circle class="cls-1" cx="20.57" cy="20.57" r="19.57"/>
      <path class="cls-2" d="m14.99,31.83c-.18-.07-.38-.12-.55-.2-.77-.37-1.21-1.18-1.11-2.02.09-.8.71-1.49,1.49-1.69.09-.02.19-.1.25-.17.66-.91,1.53-1.31,2.64-1.15.12.02.2,0,.28-.1.48-.61,1.1-1,1.89-1.19-.02-.41-.03-.82-.06-1.24-.07-1.01-.19-2.01-.49-2.98-.27-.88-.66-1.71-1.16-2.48-.05-.08-.16-.16-.25-.18-.69-.15-1.39-.29-2.09-.41-.91-.15-1.78-.36-2.47-1.02-.63-.6-1.04-1.34-1.36-2.13-.58-1.41-.92-2.88-1.23-4.36-.04-.19-.08-.37-.09-.56,0-.34.27-.65.6-.63,2.33.15,4.52.69,6.26,2.39,1.05,1.03,1.6,2.31,1.76,3.76.08.75.06,1.49-.03,2.24,0,.07.01.16.05.22.5.8.91,1.65,1.21,2.55,0,.02.02.05.05.11.05-.15.08-.27.13-.38.35-.74.72-1.47,1.07-2.21.05-.12.09-.26.08-.38-.17-1.65-.05-3.25.82-4.72.73-1.23,1.79-2.07,3.08-2.65,1.23-.55,2.53-.82,3.86-.92.65-.05.94.29.81.93-.31,1.57-.67,3.13-1.28,4.62-.25.61-.56,1.19-.97,1.71-.66.83-1.56,1.22-2.58,1.39-.79.13-1.58.29-2.37.45-.1.02-.22.12-.28.21-.85,1.3-1.34,2.72-1.5,4.26-.07.67-.11,1.34-.17,2.01,0,.12,0,.25,0,.38.79.19,1.43.6,1.93,1.23.04.05.14.07.21.06,1.15-.16,2.03.25,2.69,1.19.04.06.11.11.18.13.96.25,1.56,1.02,1.54,2.01-.01.9-.65,1.65-1.59,1.87-.03,0-.05.02-.08.04h-11.17Zm5.56-1.32c.53,0,1.06,0,1.58,0,1.22,0,2.45,0,3.67,0,.4,0,.71-.29.71-.66,0-.35-.29-.65-.66-.65-.4,0-.63-.17-.79-.54-.29-.68-1.03-.95-1.7-.67-.5.21-.77.1-1.04-.38-.38-.68-.96-1.05-1.73-1.05-.78,0-1.37.37-1.75,1.06-.27.48-.54.59-1.04.38-.67-.28-1.41-.01-1.69.65-.16.38-.4.56-.82.56-.31,0-.54.2-.62.5-.07.25.02.55.27.68.14.08.32.12.48.12,1.72,0,3.43,0,5.15,0Zm-2.53-14.54c.04-.7-.32-1.91-.88-2.69-1.22-1.69-3.02-2.25-4.97-2.58.03.16.06.29.09.41.28,1.21.58,2.42,1.1,3.55.23.52.51,1.01.95,1.39.71.61,1.6.6,2.51.76-.09-.1-.13-.16-.18-.21-.47-.47-.94-.94-1.41-1.41-.21-.21-.28-.46-.17-.74.11-.26.32-.42.6-.4.18.02.39.1.52.23.65.57,1.28,1.17,1.85,1.69Zm5.1.19c.09-.1.14-.15.2-.21.54-.55,1.08-1.11,1.63-1.66.1-.1.25-.19.39-.23.3-.08.59.06.73.32.15.28.11.57-.13.8-.47.48-.95.95-1.43,1.43-.05.05-.09.1-.17.2.42-.06.76-.11,1.11-.17.71-.11,1.34-.39,1.77-.99.18-.25.34-.51.48-.79.45-.9.73-1.86.98-2.83.11-.43.21-.87.31-1.33-1.32.19-2.55.54-3.64,1.28-1.47.98-2.14,2.39-2.22,4.18Z"/>
    </g>
  </g>
</svg>