<?xml version="1.0" encoding="UTF-8"?>
<svg id="Layer_2" data-name="Layer 2" xmlns="http://www.w3.org/2000/svg" viewBox="0 0 41.15 41.15">
  <defs>
    <style>
      .cls-1 {
        fill: none;
        stroke: #b2c86b;
        stroke-width: 2px;
      }

      .cls-2 {
        fill: #b1c76b;
      }
    </style>
  </defs>
  <g id="Layer_1-2" data-name="Layer 1">
    <g>
      <circle class="cls-1" cx="20.57" cy="20.57" r="19.57"/>
      <path class="cls-2" d="m13.24,7.06c.23.05.45.09.68.14,1.14.26,2.06.85,2.73,1.87.08-.15.15-.27.22-.39.37-.64,1.11-.87,1.76-.54.64.33.9,1.1.59,1.77-.11.22-.23.44-.34.66.16.11.31.21.45.33.56.47.88,1.07.97,1.79.04.36-.19.59-.56.54-.62-.09-1.24-.07-1.84.09-.1.03-.21.14-.25.23-.12.29-.21.6-.29.91-.02.07.03.21.08.24,1.15.67,2.3,1.34,3.46,2,.03.02.06.02.12.04,0-.12,0-.22,0-.32,0-2.6,0-5.2,0-7.8,0-.6.21-.76.8-.65.78.15,1.35.63,1.82,1.23.86,1.08,1.3,2.35,1.58,3.68.33,1.58.26,3.16-.07,4.74-.02.09,0,.22.06.3.34.45.56.94.64,1.5.01.09.08.19.16.24.54.33,1.09.65,1.64.97.07.04.16.05.24.04.35-.05.68-.02,1,.17,1.89,1.09,3.78,2.18,5.67,3.28.69.4.88,1.15.49,1.85-.27.49-.55.97-.84,1.45-.42.71-1.17.91-1.89.5-1.88-1.08-3.75-2.16-5.63-3.24-.31-.18-.53-.43-.65-.77-.02-.07-.07-.15-.12-.18-.44-.26-.89-.52-1.37-.8,0,.57,0,1.1,0,1.63,0,.05.05.11.08.15.26.28.36.62.36,1,0,2.13,0,4.27,0,6.4,0,.89-.55,1.42-1.44,1.43-.55,0-1.1,0-1.65,0-.75,0-1.32-.57-1.32-1.33,0-2.19,0-4.39,0-6.58,0-.32.11-.6.3-.86.07-.1.13-.24.13-.37.01-.59.01-1.19,0-1.78,0-.12-.07-.26-.16-.34-.41-.36-.72-.78-.94-1.28-.04-.08-.12-.18-.2-.2-1.22-.38-2.36-.93-3.4-1.68-.02-.01-.04-.02-.1-.04-.46,2.44-.79,4.88-1.01,7.34.22.06.42.09.62.16.72.24,1.25.71,1.59,1.39.18.37.04.61-.35.74-.56.18-1.12.38-1.66.61-.32.14-.47.39-.46.78,0,.88-.05,1.75-.09,2.63-.02.47-.39.81-.86.82-.31,0-.62,0-.93,0-.49,0-.86-.37-.84-.85.05-1.49.11-2.97.2-4.46.05-.87.14-1.73.22-2.6.02-.17-.02-.28-.19-.34-.5-.18-.99-.38-1.5-.52-.46-.13-.62-.38-.39-.81.47-.87,1.2-1.37,2.19-1.47.16-.02.22-.07.24-.23.3-1.74.61-3.48.93-5.22.03-.18,0-.32-.1-.47-.49-.73-.86-1.5-.96-2.39-.05-.46.02-.89.23-1.3.16-.33.4-.4.72-.22.37.21.73.42,1.12.64.22-.61.43-1.2.61-1.73-.61-.21-1.23-.37-1.79-.64-1.1-.53-1.86-1.4-2.32-2.53-.23-.56-.07-.99.47-1.26.02-.01.03-.03.05-.05.43,0,.86,0,1.29,0Zm10.85,21.82c0-1.07,0-2.13,0-3.2,0-.4-.15-.55-.54-.55-.52,0-1.03,0-1.55,0-.39,0-.55.16-.55.55,0,2.12,0,4.25,0,6.37,0,.41.16.57.56.57.5,0,1,0,1.5,0,.43,0,.58-.15.58-.57,0-1.06,0-2.11,0-3.17Zm10.29-3.69c-.1-.12-.19-.28-.33-.36-1.85-1.08-3.71-2.15-5.57-3.22-.31-.18-.53-.12-.71.19-.27.46-.54.92-.8,1.38-.18.31-.12.53.19.71,1.86,1.07,3.72,2.15,5.58,3.22.32.18.53.13.71-.19.27-.46.54-.92.8-1.38.05-.09.08-.19.14-.34Zm-13.73-7.59c-2.31-1.33-4.59-2.65-6.94-4,.03.31.02.56.07.79.17.83.63,1.52,1.14,2.17.74.95,1.65,1.72,2.69,2.34.65.38,1.34.69,2.07.92.03-.87.35-1.59.97-2.22Zm1.26-.72c.86-.23,1.65-.11,2.41.3.01-.1.02-.16.03-.22.33-1.83.21-3.63-.42-5.38-.3-.84-.7-1.63-1.37-2.24-.18-.17-.41-.29-.65-.46v8Zm-7.23.78c-.99,4.96-1.52,9.93-1.6,14.95h.84c.06-1.21.1-2.4.19-3.59.12-1.66.23-3.33.44-4.98.23-1.83.56-3.65.84-5.47.01-.09,0-.22-.06-.28-.19-.21-.4-.39-.65-.62Zm8.08,4.38c1.2,0,2.18-.97,2.19-2.18,0-1.2-.99-2.21-2.19-2.21-1.18,0-2.19,1-2.19,2.19,0,1.21.99,2.2,2.19,2.21ZM12.23,7.94c.03.08.04.13.06.18.63,1.37,1.69,2.18,3.18,2.41.54.08.43.12.62-.29.03-.07.04-.2,0-.26-.21-.34-.38-.72-.66-1-.86-.89-1.99-1.05-3.2-1.03Zm4.26,6.22c.05-.12.08-.21.11-.3.4-1.26.85-2.5,1.46-3.68.13-.24.27-.48.39-.73.11-.23.02-.48-.18-.58-.21-.11-.45-.04-.59.16-.04.06-.07.12-.1.18-.59,1.05-1.05,2.16-1.44,3.3-.14.4-.27.81-.41,1.21.27.15.5.28.77.43Zm5.43,10.07h1.72v-1.36h-1.72v1.36Zm5.11-2.95c-.42-.24-.82-.47-1.18-.68-.3.51-.58,1-.88,1.51.35.2.76.42,1.18.66.3-.51.58-.99.88-1.49Zm-10.72,6.62c-.33-.36-.72-.54-1.2-.59-.02.37-.05.73-.07,1.1.45-.18.85-.34,1.27-.51Zm-3.58-3.53c.04-.36.08-.69.12-1.04-.5.05-.9.24-1.22.61.37.14.72.28,1.1.43Zm5.83-12.98s-.06.01-.1.02c-.13.3-.25.59-.37.87h1.13s.03-.06.05-.09c-.24-.27-.48-.54-.71-.81Z"/>
    </g>
  </g>
</svg>