<?xml version="1.0" encoding="UTF-8"?>
<svg id="Layer_2" data-name="Layer 2" xmlns="http://www.w3.org/2000/svg" viewBox="0 0 31.54 31.51">
  <defs>
    <style>
      .cls-1 {
        fill: #b1c76b;
        stroke: #b1c76b;
        stroke-miterlimit: 10;
        stroke-width: .5px;
      }
    </style>
  </defs>
  <g id="Layer_1-2" data-name="Layer 1">
    <g id="Layer_1-2" data-name="Layer 1-2">
      <path class="cls-1" d="m17.71,5.64c1.66-1.58,3.76-1.98,5.92-2.17,2.15-.19,4.29-.02,6.42.29.67.1.87.44.6,1.07-1.08,2.45-2.38,4.77-4.17,6.8-.81.92-1.71,1.73-2.84,2.23-1.77.79-3.48.46-5.14-.4-.1-.05-.19-.1-.29-.15h-.06c.11.52.23,1.03.33,1.55.06.3.07.6.13.9.03.11.13.24.23.29.3.16.63.25.92.43.73.44,1.51.55,2.35.43,1.59-.22,3.19.82,3.59,2.33.05.2.08.41.09.61q.05.86.48,1.77c.57-.25,1.14-.5,1.7-.76.54-.25,1.09-.32,1.66-.15,1.53.44,2.11,1.97,1.29,3.4-.18.32-.46.61-.76.82-2.93,2.08-5.95,4.02-9.21,5.56-.34.16-.7.28-1.04.43-1.18.51-2.36.39-3.55.05-2.18-.61-4.28-1.4-6.3-2.41-1.16-.58-2.25-.69-3.33-.35v.42c.01,1.16-.69,1.92-1.85,2-.71.04-1.43.09-2.14.13-.94.06-1.79-.59-1.91-1.54-.12-.94-.15-1.89-.21-2.83-.12-1.82-.24-3.63-.34-5.45-.02-.35-.05-.71,0-1.05.15-.79.77-1.35,1.58-1.43.83-.08,1.67-.14,2.51-.16.89-.02,1.6.6,1.78,1.47.02.12.05.23.07.34,1.16-.25,2.3-.49,3.48-.75-.02-.69.2-1.37.72-1.93.95-1.03,2.14-1.37,3.48-1.04.88.22,1.7.2,2.51-.19.21-.1.43-.18.66-.2.3-.03.34-.19.31-.44-.15-1.1-.44-2.16-.88-3.17-.6.18-1.17.4-1.77.52-2.63.54-4.72-.32-6.27-2.51-1.18-1.67-1.86-3.56-2.36-5.52-.32-1.28-.54-2.58-.78-3.88-.09-.46.22-.8.69-.74,2.83.35,5.59.94,8.17,2.21,1.72.84,2.49,1.56,3.52,3.16h0ZM6.63,26.92h.19c1.45-.28,2.77.03,4.07.69,1.87.95,3.85,1.63,5.87,2.21,1.12.32,2.17.27,3.21-.24.12-.06.25-.1.37-.16,3.24-1.5,6.22-3.43,9.12-5.49.16-.12.33-.27.42-.45.38-.74.25-1.47-.71-1.65-.24-.04-.53.04-.77.14-2.28,1.02-4.55,2.05-6.82,3.08-.11.05-.24.13-.3.23-.87,1.3-1.84,1.62-3.31,1.1-1.09-.39-2.19-.78-3.29-1.17-.46-.17-.64-.49-.48-.86.13-.31.45-.43.83-.3,1.15.41,2.3.83,3.46,1.22.24.08.5.15.74.13.57-.05.99-.47,1.11-1.05.09-.45-.13-.97-.64-1.2-.97-.44-1.94-.88-2.95-1.21-1.95-.64-3.98-.94-6.01-1.22-1.57-.22-2.98.28-4.45.66.12,1.85.23,3.67.35,5.52v.02Zm9.2-15.63c-1.04-1.35-2.13-2.62-3.44-3.68-.72-.59-1.51-1.09-2.28-1.61-.24-.16-.45-.36-.36-.65.06-.2.27-.41.46-.48.15-.06.4.03.57.13,1.98,1.11,3.57,2.66,5.04,4.36.27.31.52.63.81.98.08-.25.14-.44.19-.64.47-1.88.2-3.57-1.32-4.91-.4-.35-.84-.67-1.3-.92-2.34-1.31-4.91-1.87-7.55-2.3,0,.12-.02.22,0,.31.21.97.4,1.95.65,2.9.45,1.69,1.05,3.32,2.02,4.8,1.62,2.46,4.09,2.74,6.49,1.72h.02Zm1.92.14c0,.06.02.11.02.17.43.26.85.55,1.3.78,1.13.58,2.31.9,3.57.53.96-.28,1.72-.89,2.41-1.58,1.82-1.83,3.07-4.05,4.17-6.35.01-.03,0-.07,0-.13l-1.23-.12c-2.16-.2-4.31-.22-6.44.25-1.23.27-2.37.74-3.2,1.74-.12.15-.17.39-.18.59-.04.7-.04,1.4-.07,2.1,0,.12-.03.25-.05.43.17-.1.27-.16.38-.22,1.85-1.13,3.79-2.05,5.9-2.58.47-.12.79.02.89.38.11.39-.1.62-.58.8-1.22.44-2.45.84-3.62,1.38-1.13.53-2.19,1.23-3.28,1.85v-.02Zm3.83,12.28s.13-.04.21-.08c1-.45,2-.92,3.02-1.36.31-.13.35-.27.19-.54-.33-.55-.46-1.14-.41-1.78,0-.12-.01-.24-.04-.36-.22-1.01-1.28-1.67-2.45-1.5-1.01.15-1.96-.03-2.83-.55-.86-.52-1.72-.56-2.63-.15-.89.4-1.82.43-2.78.22-.36-.08-.74-.13-1.11-.11-.96.05-1.74.79-1.83,1.67-.02.25.03.37.31.41.75.09,1.49.2,2.23.33,2.1.38,4.17.89,6.11,1.82.51.25,1,.59,1.43.97.27.24.4.65.6,1h-.02Zm-16.09,4.35c-.16-2.51-.33-5.17-.5-7.84-.03-.55-.29-.77-.85-.73-.63.05-1.26.09-1.89.12-.62.03-.82.24-.78.86.17,2.8.35,5.6.52,8.39.03.43.27.67.7.66.58-.02,1.16-.06,1.74-.12,1.1-.1,1.09-.11,1.06-1.36v.02Z"/>
    </g>
  </g>
</svg>