<?xml version="1.0" encoding="UTF-8"?>
<svg id="Layer_2" data-name="Layer 2" xmlns="http://www.w3.org/2000/svg" viewBox="0 0 19.19 14.5">
  <defs>
    <style>
      .cls-1 {
        fill: #b2c86b;
      }
    </style>
  </defs>
  <g id="Layer_1-2" data-name="Layer 1">
    <path class="cls-1" d="m1.24,5.88c.38-.05.66.16.91.43,1.53,1.64,3.06,3.28,4.58,4.92q.25.27.49,0c3.29-3.6,6.57-7.2,9.86-10.8.39-.43,1.09-.56,1.57-.28.44.26.66.89.49,1.44-.05.14-.12.27-.23.38-3.62,3.98-7.25,7.96-10.87,11.94-.17.18-.25.44-.52.53-.5.15-.94.06-1.3-.33-1.05-1.12-2.11-2.24-3.17-3.36-.88-.93-1.76-1.87-2.64-2.8-.22-.23-.39-.49-.41-.81-.04-.68.51-1.24,1.23-1.25Z"/>
  </g>
</svg>