<?xml version="1.0" encoding="UTF-8"?>
<svg id="Layer_2" data-name="Layer 2" xmlns="http://www.w3.org/2000/svg" viewBox="0 0 29.12 34.99">
  <defs>
    <style>
      .cls-1 {
        fill: #b1c76b;
      }
    </style>
  </defs>
  <g id="Layer_1-2" data-name="Layer 1">
    <g>
      <path class="cls-1" d="m13.47,34.99c-.57-.09-1.14-.17-1.71-.27-2.58-.49-4.85-1.64-6.82-3.38-2.21-1.96-3.72-4.37-4.47-7.23-.52-1.96-.6-3.95-.28-5.95.51-3.17,1.92-5.89,4.2-8.13,2.06-2.03,4.53-3.32,7.38-3.87.63-.12.63-.11.63-.75,0-.31,0-.61,0-.96-.28,0-.52,0-.77,0-.79-.02-1.42-.65-1.44-1.44-.01-.52-.01-1.05,0-1.57.02-.78.64-1.42,1.42-1.42,1.97-.01,3.94-.01,5.91,0,.78,0,1.4.64,1.41,1.42.01.52.01,1.05,0,1.57-.02.82-.64,1.43-1.46,1.45-.23,0-.45,0-.74,0,0,.5,0,.98.01,1.47,0,.06.15.15.24.17,1.84.31,3.55.94,5.14,1.92.61.38,1.18.81,1.81,1.24.35-.34.72-.7,1.08-1.08.31-.32.63-.59,1.09-.64.46-.04.85.11,1.18.42.36.35.72.7,1.06,1.06.6.64.59,1.44-.01,2.08-.42.45-.86.88-1.3,1.3-.15.15-.2.26-.07.46,1.04,1.66,1.71,3.46,1.99,5.4.48,3.32-.07,6.46-1.75,9.37-1.61,2.8-3.91,4.86-6.86,6.17-1.41.63-2.89,1-4.44,1.14-.09,0-.17.04-.26.06h-2.19ZM1.45,20.44c.08,7.26,5.82,13.09,13.11,13.1,7.29,0,13.12-5.82,13.11-13.11,0-7.27-5.81-13.09-13.09-13.1-7.29,0-13.06,5.83-13.13,13.11ZM17.48,2.99v-1.54h-5.83v1.54h5.83Zm7.52,7.29c.32.36.65.73.94,1.06.46-.45.89-.89,1.29-1.28-.32-.33-.66-.68-.99-1.03-.39.4-.8.81-1.23,1.26Zm-11.11-5.82v1.41h1.35v-1.41h-1.35Z"/>
      <path class="cls-1" d="m26.25,20.44c0,6.47-5.24,11.7-11.75,11.67-3.14-.01-5.86-1.16-8.11-3.35-2.32-2.25-3.51-5.08-3.53-8.25-.02-3.2,1.14-6.05,3.46-8.34,2.27-2.23,5.01-3.4,8.19-3.42,6.5-.03,11.75,5.21,11.74,11.68Zm-12.49,10.18c0-.19,0-.36,0-.53.01-.31,0-.62.05-.92.06-.36.35-.56.71-.55.42.02.68.33.7.85,0,.38,0,.77,0,1.15,5.24-.24,9.31-4.74,9.51-9.38-.42,0-.84.01-1.26,0-.49-.02-.79-.3-.8-.71,0-.42.28-.7.77-.74.24-.02.48,0,.72,0,.2,0,.4,0,.6,0-.33-5.76-5.35-9.51-9.51-9.5-.02.47-.02.95-.08,1.42-.05.37-.37.58-.74.54-.41-.04-.65-.34-.66-.84,0-.38,0-.77,0-1.15-5.44.32-9.35,5.17-9.35,9.56.44,0,.89-.04,1.32.01.48.05.73.59.5,1.02-.17.31-.45.39-.78.4-.36,0-.72,0-1.08,0,.32,4.98,4.49,9.07,9.38,9.38Z"/>
      <path class="cls-1" d="m15.3,19.86c.78,0,1.52,0,2.26,0,.39,0,.77,0,1.16.02.37.03.61.29.63.64.02.38-.18.65-.56.74-.12.03-.25.04-.37.04-1.22,0-2.43,0-3.65,0-.66,0-.93-.26-.93-.93,0-1.68,0-3.37,0-5.05,0-.55.23-.86.63-.91.5-.06.83.28.83.88,0,1.17,0,2.34,0,3.52,0,.33,0,.66,0,1.04Z"/>
    </g>
  </g>
</svg>