<?xml version="1.0" encoding="UTF-8"?>
<svg id="Layer_2" data-name="Layer 2" xmlns="http://www.w3.org/2000/svg" viewBox="0 0 16.71 16.71">
  <defs>
    <style>
      .cls-1 {
        fill: #b1c76b;
      }
    </style>
  </defs>
  <g id="Layer_1-2" data-name="Layer 1">
    <g>
      <path class="cls-1" d="m8.37,0c1.26,0,2.51,0,3.77,0,2.08.01,3.86,1.37,4.4,3.38.1.39.16.8.16,1.21.01,2.51.01,5.01,0,7.52,0,2.22-1.51,4.06-3.69,4.5-.3.06-.61.09-.92.09-2.5,0-4.99,0-7.49,0-2.24,0-4.09-1.52-4.52-3.71-.06-.28-.08-.58-.08-.86C0,9.62,0,7.1,0,4.59,0,2.5,1.36.72,3.38.17c.41-.11.84-.16,1.26-.16,1.24-.02,2.49,0,3.73,0ZM1.53,8.34c0,1.24,0,2.48,0,3.72,0,.21.01.43.06.64.3,1.5,1.51,2.49,3.04,2.49,2.49,0,4.98,0,7.47,0,.19,0,.38-.01.57-.05,1.5-.28,2.52-1.51,2.52-3.03,0-2.49,0-4.99,0-7.48,0-.19-.01-.38-.05-.57-.28-1.5-1.51-2.52-3.03-2.52-2.5,0-5,0-7.5,0-.25,0-.5.03-.74.09-1.37.33-2.32,1.53-2.33,2.94,0,1.26,0,2.52,0,3.79Z"/>
      <path class="cls-1" d="m8.03,7.98v1.75c-.17-.03-.34-.09-.5-.08-.3.03-.52.3-.53.6-.01.27.18.54.44.62.31.09.65,0,.76-.28.09-.2.13-.43.14-.65.01-1.85,0-3.7,0-5.55v-.24c.09,0,.17,0,.25,0,.36,0,.72,0,1.08,0,.14,0,.2.04.27.16.18.3.37.59.59.86.19.23.44.4.73.48.04.01.1.07.1.11,0,.47,0,.93,0,1.4-.43.06-.91-.17-1.51-.7,0,.09,0,.15,0,.21,0,1.12,0,2.24,0,3.36,0,.31-.02.62-.08.92-.19.87-.79,1.33-1.61,1.54-1.21.31-2.48-.44-2.79-1.64-.43-1.63.99-3.18,2.64-2.86Z"/>
    </g>
  </g>
</svg>