<?xml version="1.0" encoding="UTF-8"?>
<svg id="Layer_2" data-name="Layer 2" xmlns="http://www.w3.org/2000/svg" viewBox="0 0 14.3 18.76">
  <defs>
    <style>
      .cls-1 {
        fill: #b2c86b;
      }
    </style>
  </defs>
  <g id="Layer_1-2" data-name="Layer 1">
    <g>
      <path class="cls-1" d="m14.17,5.83c-.26-1.37-.87-2.57-1.83-3.58C11,.85,9.35.1,7.42,0c-1.25-.05-2.43.22-3.53.79-1.13.59-2.04,1.42-2.74,2.48C.47,4.33.1,5.48.02,6.72c-.07,1.08.06,2.14.52,3.14.47,1.03,1.12,1.94,1.78,2.83,1.4,1.89,2.82,3.76,4.24,5.64.12.16.29.29.45.43h.29c.14-.13.3-.26.43-.4.13-.16.25-.33.38-.5,1.55-2.09,3.11-4.19,4.66-6.29.45-.62.84-1.29,1.12-2.01.47-1.21.51-2.47.28-3.73Zm-1.81,4.32c-.79,1.2-1.63,2.37-2.48,3.53-.85,1.17-1.74,2.31-2.61,3.47-.04.04-.07.08-.12.14-.56-.74-1.11-1.46-1.65-2.18-1.01-1.35-2.01-2.7-3-4.07-.49-.67-.92-1.39-1.17-2.2-.27-.89-.3-1.8-.13-2.7.46-2.38,1.85-4.01,4.15-4.74,2.15-.69,4.13-.22,5.83,1.26,1,.87,1.63,1.98,1.89,3.27.3,1.49.14,2.93-.71,4.22Z"/>
      <g>
        <path class="cls-1" d="m7.15,4.61c-1.53,0-2.78,1.24-2.78,2.78.02,1.52,1.26,2.76,2.77,2.77,1.54,0,2.78-1.24,2.78-2.77s-1.24-2.78-2.77-2.78Zm-.01,5.5c-1.49-.01-2.7-1.23-2.72-2.72,0-1.51,1.23-2.73,2.73-2.73s2.72,1.22,2.72,2.73-1.22,2.72-2.73,2.72Zm.01-5.5c-1.53,0-2.78,1.24-2.78,2.78.02,1.52,1.26,2.76,2.77,2.77,1.54,0,2.78-1.24,2.78-2.77s-1.24-2.78-2.77-2.78Zm-.01,5.5c-1.49-.01-2.7-1.23-2.72-2.72,0-1.51,1.23-2.73,2.73-2.73s2.72,1.22,2.72,2.73-1.22,2.72-2.73,2.72Zm2.75-5.45c-.7-.71-1.66-1.14-2.73-1.15-2.14,0-3.87,1.73-3.87,3.86-.01,1.03.39,2,1.12,2.74.74.74,1.71,1.15,2.74,1.15,2.13,0,3.87-1.73,3.87-3.87,0-1.07-.43-2.03-1.13-2.73Zm-2.74,6.55c-1.02,0-1.98-.41-2.7-1.14-.72-.72-1.12-1.68-1.12-2.7,0-2.1,1.72-3.81,3.83-3.81,2.1.01,3.82,1.73,3.82,3.83-.01,2.11-1.73,3.82-3.83,3.82Zm0-6.6c-1.53,0-2.78,1.24-2.78,2.78.02,1.52,1.26,2.76,2.77,2.77,1.54,0,2.78-1.24,2.78-2.77s-1.24-2.78-2.77-2.78Zm-.01,5.5c-1.49-.01-2.7-1.23-2.72-2.72,0-1.51,1.23-2.73,2.73-2.73s2.72,1.22,2.72,2.73-1.22,2.72-2.73,2.72Z"/>
        <path class="cls-1" d="m7.16,3.56c-2.11,0-3.83,1.71-3.83,3.81,0,1.02.4,1.98,1.12,2.7.72.73,1.68,1.14,2.7,1.14,2.1,0,3.82-1.71,3.83-3.82,0-2.1-1.72-3.82-3.82-3.83Zm-.02,6.6c-1.51-.01-2.75-1.25-2.77-2.77,0-1.54,1.25-2.78,2.78-2.78s2.77,1.24,2.77,2.78-1.24,2.77-2.78,2.77Z"/>
      </g>
    </g>
  </g>
</svg>